<svg xmlns="http://www.w3.org/2000/svg" xmlns:xlink="http://www.w3.org/1999/xlink" width="8000" zoomAndPan="magnify" viewBox="0 0 6000 2324.999891" height="3100" preserveAspectRatio="xMidYMid meet" version="1.0"><defs><g/></defs><g fill="#ffffff" fill-opacity="1"><g transform="translate(34.644513, 1559.626494)"><g><path d="M 96.765625 0 L 96.765625 -806.421875 L 252.296875 -806.421875 L 608.265625 -315.65625 L 608.265625 -806.421875 L 790.296875 -806.421875 L 790.296875 0 L 634.765625 0 L 278.796875 -494.21875 L 278.796875 0 Z M 96.765625 0 "/></g></g></g><g fill="#ffffff" fill-opacity="1"><g transform="translate(864.110104, 1559.626494)"><g><path d="M 96.765625 0 L 96.765625 -806.421875 L 279.9375 -806.421875 L 279.9375 0 Z M 96.765625 0 "/></g></g></g><g fill="#ffffff" fill-opacity="1"><g transform="translate(1183.223818, 1559.626494)"><g><path d="M 595.59375 0 L 595.59375 -324.875 L 279.9375 -324.875 L 279.9375 0 L 96.765625 0 L 96.765625 -806.421875 L 279.9375 -806.421875 L 279.9375 -496.53125 L 595.59375 -496.53125 L 595.59375 -806.421875 L 778.765625 -806.421875 L 778.765625 0 Z M 595.59375 0 "/></g></g></g><g fill="#ffffff" fill-opacity="1"><g transform="translate(2001.169059, 1559.626494)"><g><path d="M 10.375 0 L 330.640625 -806.421875 L 510.34375 -806.421875 L 830.609375 0 L 634.765625 0 L 580.625 -139.390625 L 260.359375 -139.390625 L 206.21875 0 Z M 307.59375 -283.40625 L 534.546875 -283.40625 L 420.484375 -578.3125 Z M 307.59375 -283.40625 "/></g></g></g><g fill="#ffffff" fill-opacity="1"><g transform="translate(2784.553147, 1559.626494)"><g><path d="M 96.765625 0 L 96.765625 -806.421875 L 415.890625 -806.421875 C 501.140625 -806.421875 575.632812 -789.523438 639.375 -755.734375 C 703.125 -721.941406 752.660156 -674.707031 787.984375 -614.03125 C 823.316406 -553.351562 840.984375 -483.078125 840.984375 -403.203125 C 840.984375 -322.566406 823.316406 -252.101562 787.984375 -191.8125 C 752.660156 -131.519531 703.125 -84.476562 639.375 -50.6875 C 575.632812 -16.894531 501.140625 0 415.890625 0 Z M 279.9375 -168.203125 L 412.421875 -168.203125 C 460.046875 -168.203125 501.90625 -177.992188 538 -197.578125 C 574.09375 -217.160156 602.316406 -244.613281 622.671875 -279.9375 C 643.023438 -315.269531 653.203125 -356.359375 653.203125 -403.203125 C 653.203125 -450.828125 643.023438 -492.109375 622.671875 -527.046875 C 602.316406 -561.992188 573.898438 -589.257812 537.421875 -608.84375 C 500.941406 -628.425781 458.507812 -638.21875 410.125 -638.21875 L 279.9375 -638.21875 Z M 279.9375 -168.203125 "/></g></g></g><g fill="#ffffff" fill-opacity="1"><g transform="translate(3616.327808, 1559.626494)"><g><path d="M 117.5 0 L 117.5 -806.421875 L 218.890625 -806.421875 L 218.890625 0 Z M 117.5 0 "/></g></g></g><g fill="#ffffff" fill-opacity="1"><g transform="translate(3895.120371, 1559.626494)"><g><path d="M 385.9375 14.96875 C 321.414062 14.96875 265.535156 4.023438 218.296875 -17.859375 C 171.066406 -39.742188 134.585938 -70.460938 108.859375 -110.015625 C 83.140625 -149.566406 69.894531 -195.457031 69.125 -247.6875 L 170.5 -247.6875 C 172.03125 -196.226562 192.570312 -155.710938 232.125 -126.140625 C 271.6875 -96.578125 322.957031 -81.796875 385.9375 -81.796875 C 442.769531 -81.796875 487.890625 -92.929688 521.296875 -115.203125 C 554.703125 -137.472656 571.40625 -168.578125 571.40625 -208.515625 C 571.40625 -246.148438 555.273438 -276.296875 523.015625 -298.953125 C 490.765625 -321.609375 438.15625 -341.382812 365.1875 -358.28125 C 266.113281 -382.09375 193.535156 -412.617188 147.453125 -449.859375 C 101.378906 -487.109375 78.34375 -536.84375 78.34375 -599.0625 C 78.34375 -667.414062 104.257812 -721.554688 156.09375 -761.484375 C 207.9375 -801.421875 278.019531 -821.390625 366.34375 -821.390625 C 456.96875 -821.390625 528.582031 -798.734375 581.1875 -753.421875 C 633.800781 -708.109375 660.492188 -646.285156 661.265625 -567.953125 L 561.046875 -567.953125 C 560.273438 -616.335938 542.414062 -654.546875 507.46875 -682.578125 C 472.519531 -710.609375 425.476562 -724.625 366.34375 -724.625 C 308.738281 -724.625 263.613281 -713.296875 230.96875 -690.640625 C 198.332031 -667.984375 182.015625 -637.457031 182.015625 -599.0625 C 182.015625 -566.03125 197.179688 -538.1875 227.515625 -515.53125 C 257.859375 -492.875 312.195312 -471.945312 390.53125 -452.75 C 493.445312 -427.40625 566.796875 -395.722656 610.578125 -357.703125 C 654.359375 -319.691406 676.25 -271.113281 676.25 -211.96875 C 676.25 -142.082031 649.941406 -86.785156 597.328125 -46.078125 C 544.710938 -5.378906 474.25 14.96875 385.9375 14.96875 Z M 385.9375 14.96875 "/></g></g></g><g fill="#ffffff" fill-opacity="1"><g transform="translate(4582.88546, 1559.626494)"><g><path d="M 646.296875 0 L 646.296875 -362.890625 L 218.890625 -362.890625 L 218.890625 0 L 117.5 0 L 117.5 -806.421875 L 218.890625 -806.421875 L 218.890625 -459.65625 L 646.296875 -459.65625 L 646.296875 -806.421875 L 747.671875 -806.421875 L 747.671875 0 Z M 646.296875 0 "/></g></g></g><g fill="#ffffff" fill-opacity="1"><g transform="translate(5390.462168, 1559.626494)"><g><path d="M 117.5 0 L 117.5 -806.421875 L 218.890625 -806.421875 L 218.890625 0 Z M 117.5 0 "/></g></g></g><g fill="#ff3131" fill-opacity="1"><g transform="translate(5669.265126, 1559.626494)"><g><path d="M 147.453125 9.21875 C 124.421875 9.21875 105.800781 1.921875 91.59375 -12.671875 C 77.382812 -27.265625 70.28125 -45.3125 70.28125 -66.8125 C 70.28125 -89.09375 77.382812 -107.144531 91.59375 -120.96875 C 105.800781 -134.789062 124.421875 -141.703125 147.453125 -141.703125 C 171.265625 -141.703125 190.273438 -134.789062 204.484375 -120.96875 C 218.691406 -107.144531 225.796875 -89.09375 225.796875 -66.8125 C 225.796875 -45.3125 218.691406 -27.265625 204.484375 -12.671875 C 190.273438 1.921875 171.265625 9.21875 147.453125 9.21875 Z M 147.453125 9.21875 "/></g></g></g></svg>